<svg id="Layer_1" data-name="Layer 1" xmlns="http://www.w3.org/2000/svg" viewBox="0 0 1968 1967.38">
  <g>
    <path id="one" d="M1944,578c-.26,1.61-.62,3.22-.77,4.85-2.7,29.67-4.67,59.43-8.21,89-6.07,50.64-17.28,100.28-31.78,149.16a964.39,964.39,0,0,1-63.57,160.13c-24.84,49.27-52.49,96.9-86.26,140.55-21.66,28-45.12,54.66-68.56,81.22-15.72,17.82-32.17,35.11-49.47,51.38-21,19.69-42.58,38.74-64.94,56.8a716.15,716.15,0,0,1-60.9,44.32c-27.89,18-56.42,35.24-85.49,51.33-23.38,13-47.69,24.36-72.09,35.33-43.44,19.55-88.54,34.53-134.54,46.83a1034.55,1034.55,0,0,1-127.6,25.79,965.56,965.56,0,0,1-193.47,6.58,988.81,988.81,0,0,1-102.11-12,994.81,994.81,0,0,1-101.63-23,977.61,977.61,0,0,1-149.82-55.75,1006.31,1006.31,0,0,1-97.12-52.08c-33.6-20.44-66.21-42.38-95.87-68.19-33.88-29.48-67.54-59.29-99.82-90.49-34.65-33.49-64.1-71.6-92.06-110.84a981,981,0,0,1-75-123.56A914.36,914.36,0,0,1,27.72,853.37c-8.82-27-16.59-54.37-23.9-81.82A616.31,616.31,0,0,1-14.63,669.49c-3.6-39.3-5.78-78.73-8.6-118.09-.13-1.81-.51-3.6-.77-5.4V504c.28-2.13.68-4.25.81-6.38.82-13.8,1.16-27.64,2.46-41.4A1059.76,1059.76,0,0,1-2.55,335.34,994.76,994.76,0,0,1,88.23,83.28,1004,1004,0,0,1,147-14.61c24.23-35.7,50.42-69.88,79.37-101.88a1052.78,1052.78,0,0,1,94.28-92,962.63,962.63,0,0,1,102.11-76.63c35.14-22.91,71.39-44,109.46-61.55,30.44-14.06,61.28-27.47,92.64-39.31,54.91-20.72,111.66-34.81,169.79-43.32,37.05-5.42,73.93-12.14,111.51-13,6.29-.15,12.55-1.08,18.83-1.65h69a49.37,49.37,0,0,0,5.35.9c12.63.8,25.27,1.46,37.9,2.26,44.59,2.83,89,7.75,132.37,18.44,36.77,9.06,73.38,19,109.44,30.54,49.64,15.86,97,37.39,143,61.92,36,19.19,71.21,39.77,104,64,28.72,21.28,56.45,43.93,84,66.74,35,29,66.12,61.84,95.65,96.24a1002.4,1002.4,0,0,1,86.66,117,979.51,979.51,0,0,1,57.81,104.71c23.08,48.76,42.4,99,56.35,151.14,8.13,30.33,15.45,60.95,21.33,91.78,8.1,42.55,12.12,85.68,14.36,129,.51,9.79,1.22,19.57,1.84,29.35ZM961.19-393.07c-54.13-.92-107.84,3.89-161.22,12.4A865.62,865.62,0,0,0,692.51-356.3a876,876,0,0,0-116.33,43.18,897.16,897.16,0,0,0-114.57,62.69,965.22,965.22,0,0,0-134,104.57A1015,1015,0,0,0,223.76-34a931.27,931.27,0,0,0-69.49,99.9A862.77,862.77,0,0,0,83,215.09c-20.67,56.74-36,114.88-44,174.77-4.14,31-7.67,62.17-9.58,93.38C25.09,552.8,28.84,622.13,39.28,691A888.45,888.45,0,0,0,112,931.87a873.73,873.73,0,0,0,60,108.06,933.34,933.34,0,0,0,74.93,99.68A1034,1034,0,0,0,374.15,1264.1,913.89,913.89,0,0,0,510.42,1357a897.07,897.07,0,0,0,217.5,85.58c51.61,12.8,104,20.9,157,25.8a851.92,851.92,0,0,0,172.63-1.8c27.27-3,54.49-7,81.48-12a832.13,832.13,0,0,0,137.06-37.15c23.38-8.59,46.45-18.13,69.28-28.12,40-17.49,78-38.79,114.68-62.44a937.74,937.74,0,0,0,93.1-68.72,1027.66,1027.66,0,0,0,81-75.59,1000.55,1000.55,0,0,0,74.44-86.68,908.54,908.54,0,0,0,69.55-105.26,860.73,860.73,0,0,0,62.12-136.41,905.91,905.91,0,0,0,29.16-101c10.85-47.84,17.42-96.25,20.92-145.15,4.17-58.35,2.63-116.57-3.6-174.67a905.78,905.78,0,0,0-18.09-106.76,925.93,925.93,0,0,0-42.66-136.49,911.52,911.52,0,0,0-65.86-132.49,935,935,0,0,0-321.74-319.88,941.27,941.27,0,0,0-132.14-65.4,912,912,0,0,0-235.28-59.6A847.19,847.19,0,0,0,961.19-393.07Z" transform="translate(24 444)"/>
    <path id="two" d="M1674.8,741.45c-.44,35.33-8.37,65.54-20.23,95-15.26,37.9-38.66,70.45-65.4,100.81q-20.61,23.4-42.23,45.89c-15.32,16-33.66,28.17-52.56,39.43-22.72,13.53-45.51,26.93-68.54,39.92a810.64,810.64,0,0,1-106.55,50.85c-30.07,11.6-60.38,22.69-90.93,32.93a1287.37,1287.37,0,0,1-141.48,38.32c-37.64,8-75.72,13.27-114,17.5-37.07,4.11-74.08,8.69-111.18,12.51-27.33,2.81-54.73,5.24-82.15,6.76-11.2.62-22.57-1.49-33.83-2.61-28.5-2.84-57-5.37-85.46-8.87-29.23-3.61-58.45-7.56-87.46-12.59-30.78-5.33-61.56-11.08-91.85-18.64-19.56-4.87-38.63-12.4-57.22-20.35-34.15-14.59-65.34-34.35-93.78-58.27-33.17-27.9-59.27-61.09-74-102.28-14.41-40.16-17.08-81.15-7.67-122.88,6.88-30.47,19.68-58.51,34.6-85.7,17.31-31.52,37.87-60.83,63-86.49,17.77-18.15,36.32-35.81,56.22-51.54,25.94-20.5,53.12-39.52,80.57-58,26.21-17.63,53.24-34,80.28-50.41,24.6-14.88,49.22-29.87,74.71-43.13,24.15-12.55,49.17-23.53,74.3-34s50.83-19.67,76.35-29.24c32.24-12.09,64.66-23.92,98.46-30.63,36.38-7.22,73-13.16,109.71-18.67,24.84-3.72,49.87-6.58,74.93-8.34,51.2-3.58,102.53-6.86,153.71-.39,29,3.67,58,8.23,86.63,14.33a781,781,0,0,1,79.87,21.43c34,11.11,65.14,28.66,94.38,49.14,23.15,16.22,46,32.93,68,50.73,24.23,19.65,45,42.9,63.81,67.81,13.43,17.73,24.91,36.56,33.59,57C1665.74,672.67,1673.5,708.06,1674.8,741.45ZM911.18,486.92c.05.59.09,1.18.13,1.77a47,47,0,0,1-6.24,2.24c-19.36,4.1-38.8,7.84-58.11,12.16-41.69,9.34-83.64,17.79-124.91,28.75-51.77,13.75-100.59,35.41-147.65,60.95-37.33,20.27-73.11,43-106.69,69.05-33.29,25.84-65.43,53-94.12,84C345.18,776.52,322,810.5,306.66,849.64c-8.28,21.19-14.79,42.86-15.54,65.73-1.44,43.82,15.05,80.91,44.35,112.6,24.3,26.27,54,45.13,86.17,60.32,43.45,20.54,89.44,33.1,136.55,41.57,29.31,5.27,58.82,9.39,88.24,14,24.88,3.91,49.87,6.7,75.1,6.12,43.32-1,86.64-1.93,129.94-3.37,24.47-.82,49-1.65,73.33-4.17,28.12-2.91,56.22-6.72,84-11.87q65.71-12.19,131-26.84a939.49,939.49,0,0,0,150-47.89c24.73-10.17,49.1-21.27,73.38-32.5a648.14,648.14,0,0,0,97.4-55.51,553,553,0,0,0,89.21-76.65c28.08-30,50.48-63.35,62.65-103.08,10.76-35.15,12.59-70.34,1.4-105.65-9.5-30-26.15-56-46.32-79.71-37.36-44-82.59-78.09-133.5-104.79-45.77-24-94.4-40.22-144.63-51.91-27.43-6.39-55.12-11.46-83.24-13.09-24.6-1.43-49.27-1.56-73.91-2.27-49.93-1.45-99.59,1.35-148.73,10.62-37,7-73.77,14.57-110.61,22.09-3.23.66-6.16,2.76-9.51,4.33,4.15,5.39,8.48,8.15,14.45,9.54C889.06,479.9,900.07,483.64,911.18,486.92Z" transform="translate(24 444)"/>
    <path id="three" d="M1424.24,23.91c9.19-47.46,28-91.48,43.18-136.61,3.8-11.3,13.79-16.36,25.44-13.68,13.7,3.15,22.58,11.42,23.35,23.19.33,5.12-.94,10.62-2.65,15.54-6.26,18.06-13.2,35.88-19.52,53.92C1478.16,11.6,1473,58.17,1477.67,106c3.59,36.54,13.46,71.48,25.79,105.85,3.13,8.71,9.76,13.25,19.19,13.12,7.81-.11,15.62-1.08,23.41-.89a30.42,30.42,0,0,1,12.42,3c6.85,3.37,7.66,11.33,1.56,15.92-4.58,3.44-10,5.73-15.18,8.39-2.5,1.29-5.19,2.22-7.78,3.35-9.28,4.05-11.87,9.72-8.2,19.2,4.63,11.93,9.85,23.63,14.36,35.6,1.85,4.91,3.39,10.24,3.5,15.42.21,10-7.77,14.33-16.2,9-16.25-10.33-30-23.16-38.93-40.56a74.13,74.13,0,0,0-4.17-6.8c-6.25-9.52-14.86-12.21-26-10q-68.57,13.42-137.25,26.27c-33,6.15-66.17,11.78-99.27,17.64q-69,12.24-138.1,24.47c-21.62,3.83-43.26,7.61-64.85,11.59Q956.5,368.52,891,380.8q-47.09,8.79-94.17,17.65-64.24,12.14-128.46,24.38c-30.72,5.86-61.5,11.42-92.12,17.77-46.74,9.69-93.37,19.87-140,30-30.06,6.51-60,13.57-90.14,19.78-13.38,2.76-26.65,1.67-37.93-7.43-6.79-5.48-10.28-12.78-11.26-21.49-1.4-12.38,2.07-23.76,6.71-34.89,14.69-35.21,22.9-72.19,30.34-109.39,5.57-27.9,11.27-55.77,16.47-83.74,5.44-29.27,10.72-58.58,15.25-88,1.17-7.65-.61-15.79-1.32-23.67-.34-3.79-1.56-7.49-2-11.27-1.77-14,9.64-23.86,24.09-21.12,11.41,2.18,19,9.35,24.31,19,10.36,19,20.18,38.22,30.41,57.25,9.36,17.4,16.83,36,29.86,51.16,5.36,6.26,11,12.57,17.62,17.4,7.59,5.55,17,5.63,25.25,1.48,23.66-11.84,43.65-27.93,56.61-51.64,8.22-15,11.79-31.31,13.4-48.19,2.19-22.87,4.66-45.72,6.88-68.59,1.87-19.38,3.58-38.78,5.31-58.18,1.21-13.48,7-24.4,19.86-29.34,13.22-5.09,26.3-3.36,37.45,6.21,5.36,4.6,8,11,9.53,17.74,4,18.18,7.5,36.5,12.15,54.52a162.58,162.58,0,0,0,32.76,63.86,173.52,173.52,0,0,0,25.32,25.3c17.21,13.62,32.63,12.58,49.74-1.57,20.33-16.81,35.68-37.62,48.18-60.61,10.16-18.68,19.83-37.63,29.86-56.4,2.69-5,6.14-9.47,11.84-11.64,3.17-1.2,5.6-1,8,1.7C884.46,22.9,885.9,27.54,886,33c.69,53.56-19.84,98.1-57.81,135a165.66,165.66,0,0,1-25.84,21c-18.64,11.88-39.17,12.63-60.18,7.38-36.6-9.15-63.5-31.59-84.74-61.8a24.48,24.48,0,0,0-3.35-4.31c-3.93-3.57-8-7-12.18-10.52-8.73,10.53-13.18,22.6-14.62,35.6-3.12,28.14-14.74,52.4-33.18,73.4a367.29,367.29,0,0,1-31.68,32.42c-15.22,13.51-34,18.49-54.1,18.31-27.76-.25-51.94-9.58-71-30.08-7.66-8.24-13.77-17.91-20.68-26.86-4.34-5.62-8.19-11.9-16.19-13.54-6,6.22-5.47,14.59-6.31,22.32-2.31,21.19-3.87,42.45-6.1,63.65C385,324.31,378.6,353,370.63,381.43c-3.28,11.68-6.91,23.27-9.8,35-3,12.06,3.64,19.09,15.79,16.82,27-5,53.9-10.45,80.85-15.66q63.19-12.22,126.42-24.38,46.8-9,93.64-17.8,64.74-12.18,129.52-24.19,48.83-9.06,97.68-17.95,49.1-9,98.17-18,48.36-8.91,96.69-17.85c44-8.08,88-16.25,132.07-24.13,34.72-6.21,69.49-12.13,104.27-18,34.27-5.83,68.57-11.47,102.85-17.23a58.67,58.67,0,0,0,7.77-1.77c9.23-2.9,12.34-7.77,9.79-17-3.24-11.68-7.14-23.18-10.87-34.73A420.73,420.73,0,0,1,1426,76.77c-.52-10-1.11-19.91-1.74-31.15-2.24,2.17-4.06,3.34-5.06,5-13.64,22.47-34.6,28.7-59.17,26.69-19.28-1.57-33.88-12.87-48.4-24.11-6.18-4.78-12-10.09-18.2-14.76-7.84-5.87-12.24-5-17.67,3.37-4.09,6.26-7.94,12.68-11.83,19.08-14.69,24.15-29.22,48.41-44.09,72.45-12.11,19.58-30.62,29.14-52.92,31.55-49.75,5.38-92.86-11.49-132.5-40-23.29-16.75-42.69-37-57.72-61.44C962.62,40.58,953.48,15.72,947-10.22c-2-7.73-4.37-15.35-6.78-23a5.87,5.87,0,0,0-2.93-3.4c-.69-.27-2.51,1.26-3.24,2.36-6.38,9.54-12.38,19.34-19,28.68A44.75,44.75,0,0,1,904.11,5.24c-7.94,5.44-16.55,2.75-20.79-6-4.53-9.34-3.6-19.23-2-28.94,4.9-28.88,10.14-57.69,15.18-86.54q9.18-52.62,18.24-105.26a303.42,303.42,0,0,0,4.49-56.7c-.09-5.65.3-11.32.65-17,1-15.89,10.43-21.15,24.19-21.35,12.89-.18,21.64,8.12,25.22,20.68,9.22,32.38,10.57,65.57,11.81,98.9,1.15,30.79,3.45,61.54,5.48,92.29a574.09,574.09,0,0,0,12.31,86.42c7.48,33.75,19.41,65.45,43,91.46,25,27.52,56.19,44.47,92.6,51.29,13.79,2.58,27.55.16,40.69-4.9,8.35-3.22,12.84-10,15.16-18.1a117.52,117.52,0,0,1,19.42-38.39c21-28,32.57-60.35,41.29-93.9,3.11-12,4.78-24.55,11.72-35.32,8.68-13.45,29.08-21.83,44.16-17.84,8.87,2.34,14.76,8.33,16,17.24,1.62,11.85,1.91,23.88,2.83,35.82a149.91,149.91,0,0,0,9.37,42.74c5.3,13.75,20.49,21.22,36.22,17.64a69.83,69.83,0,0,0,8.65-2.44c12.67-4.63,25.62-5.42,38.85-3.21A32.88,32.88,0,0,0,1424.24,23.91Z" transform="translate(24 444)"/>
    <path id="four" d="M1290.21,1333.79q0,15,0,30c0,9.15-2.17,12.54-9.8,15.26-7,2.48-13,.61-18.19-5.53-6.53-7.74-13.12-15.44-19.55-23-4.66,1-5,4.28-4,7.47,2.47,8.27,5.32,16.43,8,24.62,1.16,3.47,2.57,6.86,3.52,10.39,1.07,4-.46,6.89-4.52,8.11-3.81,1.16-7.65,2.27-11.53,3.18-7.63,1.79-10.63,0-13.07-7.48q-7.57-23.24-15.12-46.46-6.92-21.11-13.9-42.18c-3.25-9.82-1.65-12.84,8.26-15.57,1.77-.49,3.54-1,5.28-1.51,8.13-2.57,14.53,0,20.07,6.22,8.37,9.46,17,18.69,25.62,28,3,3.29,6.2,6.51,9.52,9.52a4.37,4.37,0,0,0,3.84.83,4.45,4.45,0,0,0,2-3.43c0-15.32-.12-30.65-.26-46,0-2.83-.34-5.66-.35-8.49,0-4.78,2-8.34,6.57-10.18,4.79-1.92,9.65-3.65,14.36-5.73,4.08-1.8,6.49-.58,8.34,3.33,9.16,19.39,18.45,38.72,27.69,58.07q7.95,16.65,15.89,33.31c3.34,7,2.56,9.15-4.64,12.25-2.89,1.25-5.9,2.25-8.9,3.24-7.37,2.43-10.21,1.4-13.71-5.62-5.06-10.12-9.92-20.33-14.69-30.59C1295.5,1332.73,1293.78,1331.69,1290.21,1333.79Z" transform="translate(24 444)"/>
    <path id="five" d="M798.47,1427.58c-6-1.11-12.75-2.18-19.39-3.6-12-2.57-24-5.31-36-8.09-5.45-1.26-8-5.44-6.51-10.84q12.82-46.6,25.81-93.15c2.14-7.64,6-9.9,13.8-8,16.74,4.18,33.73,7.68,50,13.22,20.24,6.88,26.06,28.74,13.24,45.89a10.29,10.29,0,0,0-1.46,10.7,95.49,95.49,0,0,1,4.12,13.8c3.72,18.13-5.34,32.07-25.13,37.22C811.24,1426.26,805.19,1426.59,798.47,1427.58Zm2.34-25.62c4.57-.65,9.33-3.49,13.07-7.9.73-.86.93-3.16.31-4-2.16-2.82-4.34-6.19-7.34-7.67-5.13-2.53-10.85-4-16.41-5.51-3.14-.87-6.58-1.86-9.67-1.39-5.38.82-10.44,10.51-9.76,17.37.43,4.36,4.56,7.51,11.09,8.06C787.88,1401.43,793.69,1401.59,800.81,1402Zm14.37-54.58c-.8-1.31-1.56-2.4-2.15-3.57-4.29-8.46-12-11-20.61-11.49-2.07-.12-5.28,1.45-6.18,3.18a35,35,0,0,0-3.13,11.25c-.18,1.25,1.46,3.34,2.8,4.13C794.45,1355.85,807.27,1354.32,815.18,1347.38Z" transform="translate(24 444)"/>
    <path id="six" d="M599.16,1367.45c-4.15-1.11-7.67-2-11.17-3-15.83-4.44-24.87-17.06-26-36.16-.32-5.65-.49-11.32-1.11-16.93a18.68,18.68,0,0,0-2.36-7.5c-4.75-7.86-10.71-7.94-15.8-.3-4.61,6.91-9.06,13.93-13.45,21-3.77,6.06-6.6,7.11-12.66,3.74s-12-7.08-18.42-10.93c6.29-10.24,12.26-20.2,18.45-30,12.7-20.1,25.55-40.1,38.24-60.2,5.27-8.34,7.52-8.94,16.06-4,13,7.47,26,14.78,39,22.27,8.69,5,16,11.38,19,21.48,5.68,19-6.66,38.94-26.65,43.09-.17,0-.34,0-.5.08-12.83,2.5-12.95,2.73-10.44,15.91C594,1339.67,596.52,1353.38,599.16,1367.45Zm-37.92-96.14c2.64,2.73,4.17,5.28,6.42,6.45,6.33,3.29,12.93,6.07,19.49,8.88a3.89,3.89,0,0,0,3.19-.44c2.6-1.79,5.6-3.45,7.3-5.94,1.45-2.14,2.49-5.8,1.63-8a22.06,22.06,0,0,0-6.85-8.84,80,80,0,0,0-13.31-7.8c-1.61-.81-4.8-1.37-5.52-.53C569.35,1260.05,565.63,1265.43,561.24,1271.31Z" transform="translate(24 444)"/>
    <path id="seven" d="M1091.4,1434.65c-9.24,1.34-17.06,2.79-24.94,3.54-11.15,1.06-18.77-5-25.28-13.26-5.65-7.18-11.75-14-17.65-21-.43-.51-.81-1.25-1.36-1.43-3.7-1.21-7.76-3.7-11-2.92-2,.49-3.89,6-4,9.23-.21,6.1.74,12.27,1.51,18.36,1.4,11.17-2.45,15.43-13.74,14.92-2.16-.09-4.33,0-6.49,0-7.27.2-9.33-1.61-9.59-8.81-.63-17.81-1.34-35.63-1.73-53.45-.31-14.15-.26-28.32-.24-42.48,0-8.38,3.11-11.62,11.42-11.65,16.32,0,32.66-.35,49,.36,21.57.94,35.13,17.28,32.89,38.6-.74,7.08-4,12.93-8.92,18-.93,1-2,1.78-2.92,2.72-5.5,5.52-5.79,8.63-.49,14.52,5.78,6.43,11.94,12.52,18,18.74C1080.68,1423.73,1085.64,1428.76,1091.4,1434.65Zm-50.35-74.21c-1-2-1.35-5-2.93-5.87-7.4-4.2-14.73-9.4-24.1-6.31-4.1,1.36-9.06,2.22-9.59,7.42-.6,5.82.09,11.84,5.51,15.58,2,1.38,5,2.56,7.23,2.09,6.29-1.35,12.37-3.64,18.55-5.48C1039.36,1366.79,1040.72,1364.34,1041.05,1360.44Z" transform="translate(24 444)"/>
    <path id="eight" d="M676,1395.28c-20.4-.12-37.38-7.54-49.19-24.53-14.26-20.53-13.74-45.43,1.13-66.21,11-15.32,25-26.13,44.55-28,24-2.24,43.2,6.2,56,26.89,13.43,21.72,12.77,43.88-.47,65.47C717.82,1385.63,698.15,1395.24,676,1395.28ZM647,1340.63c-.12,23.55,20.79,36.44,41.78,25.61,13.88-7.17,20.2-19.4,21.06-34.42,1-18.36-14.41-31.82-32.64-29.06C659.72,1305.4,647.06,1321.28,647,1340.63Z" transform="translate(24 444)"/>
    <path id="nine" d="M900.71,1440.48c-12.79-.9-25.58-1.68-38.35-2.74-7.12-.59-9.16-3-8.27-10.11q6.28-49.49,12.85-98.94c.68-5.16,3.66-7.94,8.9-7.23,16.1,2.19,32.54,3.4,48.13,7.64,30.11,8.18,46.48,42.37,35.83,71.79C950.06,1427.78,929.63,1441.47,900.71,1440.48Zm-14.06-36.64c-.3,7.28,1.82,11.76,6.54,12.09,9.84.69,19.36-.71,27.44-6.88,12.41-9.48,15.75-29.15,7.73-43.93-5.84-10.75-14.78-16.39-27.13-16.06a8.83,8.83,0,0,0-9.05,8.22C890.28,1372.79,888.49,1388.32,886.65,1403.84Z" transform="translate(24 444)"/>
    <path id="ten" d="M1376.77,1224.08c3.16,0,6.45-.53,9.45.18,2.26.53,5.2,2.22,6,4.15,3.27,7.94-3,17.84-11.2,19.88-9.14,2.29-18,5.61-27,8.35-4.7,1.42-6.12,5.3-4.91,8.93.69,2,4.73,4.1,7.31,4.18,6.29.19,12.61-.8,18.92-1.28,11.11-.86,22.26-2.66,33.34-2.31,19.37.62,32.4,21.56,25.66,39.73a47.77,47.77,0,0,1-15.88,22c-17.45,13.21-37,20.1-59.18,18.18-13.85-1.21-16.27-5.84-9.86-18.13,3.86-7.43,7.89-9.8,16.27-8,13.52,3,24.46-2,34.65-10,.78-.61,1.8-1.3,2-2.15,1-3.37,3-7.23,2.09-10.1-.63-2-5.5-3.67-8.42-3.59-9,.25-17.9,1.78-26.87,2.13a214.13,214.13,0,0,1-25-.46c-18.73-1.44-24.85-15.49-24.55-31,.2-10.6,5.24-19.18,13.44-25.7C1347.75,1227.46,1358.38,1223.89,1376.77,1224.08Z" transform="translate(24 444)"/>
    <path id="elev" d="M1135.11,1430.16c-22-1-40.1-13.93-45.95-35.07-3.39-12.26-4.77-25.09-7-37.66-1.59-8.84-3.06-17.7-4.69-26.52-1.38-7.49.58-10.82,7.92-13,14.31-4.22,18-2.17,20.75,12.25,3.13,16.67,5.84,33.41,8.88,50.09a61.5,61.5,0,0,0,2.86,9.51c2.91,8.07,8.41,13.34,17.22,13.6,9.47.28,18.35-1.85,24.16-10.28,3.72-5.4,2.77-11.54,1.35-17.39-4.35-17.92-8.93-35.78-13.42-53.67-.44-1.77-.89-3.54-1.24-5.34a14.14,14.14,0,0,1-.2-3c.21-5.94,4.43-8.83,15.33-10.56,6.17-1,10.45.78,11.77,5.67,5.92,21.8,12,43.57,17.27,65.53,5.55,23.2-9.66,43.27-31.3,50.44C1151.15,1427.32,1143,1428.41,1135.11,1430.16Z" transform="translate(24 444)"/>
    <path id="twelve" d="M477.27,879c8.77-.5,17.56-.79,26.3-1.57,7.45-.67,14.76-.74,21.15,3.69,14.13,9.78,12.77,31.29-2.4,40.15-16.11,9.41-33.38,10.42-51.24,7.13-11.68-2.15-22.5-6.3-30.72-15.25-12.63-13.75-13.92-30.3-9.76-47.31,5.4-22.11,17.46-40.95,32.15-58,38.37-44.47,82.61-82.42,130.51-116.23,42-29.61,86.47-54.94,132.57-77.38q49.29-24,99.64-45.83c24.21-10.56,48.74-20.62,73.8-28.9,17.73-5.86,36.51-8.67,54.94-12.28,24.65-4.82,49.34-9.5,74.14-13.5,51.39-8.28,103.06-13.72,155.21-10.49,24.08,1.48,48.21,3.41,71.61,9.91,18,5,35.36,12,50.49,23.19,16.9,12.5,21.83,35.1,13,54.27-4.86,10.55-13.12,17.77-22,24.63C1263.19,641,1225.78,659.78,1188,678c-20.35,9.84-40.58,19.93-60.84,30-4.33,2.15-8.77,4.28-10,11.26,3.27.84,7,2.75,10.51,2.51,16.52-1.08,31.78-5.33,45.34-15.92,16-12.47,34.71-14.22,52.75.07a24.56,24.56,0,0,0,13.7,4.9c20.82.53,41.66.07,62.49.31,32.52.39,64.92,2.25,96.7,9.91a198,198,0,0,1,64.33,28.65c19.82,13.3,25,37.14,20.26,56.38-4.57,18.54-14.5,34.19-26.54,48.64-18,21.57-41.24,36.53-64.6,51.31a770.39,770.39,0,0,1-135.73,68.21c-49.07,18.85-99.22,34.52-149.71,49.1-27.31,7.88-54.58,16.09-82.23,22.61-38.35,9-76.94,17.13-115.61,24.69-25.3,5-50.88,8.49-76.4,12.21-49.46,7.22-99.23,7.68-149.1,6.4-30.22-.77-60.23-2.81-89.62-10.19-27.51-6.91-54.09-16.21-78.66-30.83a124.89,124.89,0,0,1-50-54.86,20.46,20.46,0,0,0-1.77-3.57c-7.29-9.55-3.89-18.94.7-28.09.77-1.54,3.69-2.93,5.55-2.85,5.57.25,10,3.18,13.49,7.53,7.81,9.7,15,20,23.61,28.93a115,115,0,0,0,63,33.41A893.72,893.72,0,0,0,741.23,1043c33.17-.49,66.3-2.3,99-7.85,30.66-5.18,61.3-10.68,91.68-17.28,44.68-9.7,89.13-20.48,133.66-30.89a53.25,53.25,0,0,0,10.31-3.62c10-4.66,11.62-11.37,5.13-20.4a126.59,126.59,0,0,1-19.14-38.73c-6.65-22.91-5.27-45.74.66-68.53,6.15-23.69,17-45.39,28.29-66.89.93-1.77,2.27-3.4,2.8-5.28.59-2.08,1.38-5.07.39-6.37s-4.17-2-6.27-1.76c-38.46,3.76-76.59,9.42-114.12,19-38.23,9.76-75.86,21.34-112.57,35.74-24,9.41-47.68,19.53-71.53,29.27-6.31,2.57-12.78,4.74-19,7.37-13.88,5.83-17,14-9.73,27.31,8.21,15,17.12,29.66,25.72,44.47,1.09,1.87,2.11,3.77,3.21,5.62,3.61,6.07,3.1,11.87-1.57,17s-10.33,7.28-17.14,5.07c-11.45-3.73-21.11-10.49-29.91-18.49-22.42-20.37-30.44-46.88-32.11-76.06-2-35.11,5.77-68.42,18.43-100.86,16.53-42.36,38.44-81.79,64-119.3,3.35-4.91,5.79-10.48,8.27-15.91.67-1.48-.08-3.6-.18-5.43-1.63.16-3.39,0-4.89.54-42.58,15.84-82,38-120.83,61.21A782.23,782.23,0,0,0,569.4,766.3c-29.3,24.83-55.18,53.05-78.37,83.6-6.21,8.2-10,18.26-14.86,27.46Zm756.85-309.26c-7.48-8.52-14.41-13-23.37-14.11-14.7-1.84-29.53-2.79-44.16-5-31-4.74-62.1-4.57-93.13-1.12-23.48,2.6-46.84,6.32-70.23,9.68-20.17,2.9-39.82,7.78-58.42,16.29-23.63,10.8-43.81,26.2-61.45,45.26-29.46,31.86-56.57,65.42-77.88,103.41-10.14,18.07-17.78,37.16-24.3,56.75-2.39,7.2,0,10,7.36,8.36a93.62,93.62,0,0,0,17.62-5.34c32.78-14.62,65.43-29.52,98.1-44.4Q941.93,722.3,979.52,705c28.57-13.07,57.2-26,85.69-39.24,18.55-8.61,36.75-18,55.39-26.4,31.53-14.23,63.25-28,91.57-48.33C1220.55,585,1228.88,578.91,1234.12,569.69Zm-112,321.25c0,7.91,9.46,38.81,14.56,46.16a12.71,12.71,0,0,0,12.53,5.61,40.94,40.94,0,0,0,9.26-2c25.52-9,51.36-17.26,76.38-27.51s49.13-22,73.21-33.94c28.8-14.33,56.5-30.59,79-54.18a196.88,196.88,0,0,0,20.38-24.42c5.82-8.53,3.18-16.28-6-21.21a74.32,74.32,0,0,0-14.23-5.91c-10.65-3.11-21.34-7.51-32.21-8.19-38.33-2.39-76.75-3.51-115.15-4.92a132.61,132.61,0,0,0-23.42.73c-5.89.85-12.47,2.44-17.06,5.91-19.83,15-37.73,32-52.65,52.12C1131.07,840.25,1123.66,863.94,1122.09,890.94Z" transform="translate(24 444)"/>
  </g>
</svg>
